<svg width="118" height="105" viewBox="0 0 118 105" fill="none" xmlns="http://www.w3.org/2000/svg">
<path d="M95.7212 8.27909C84.5812 1.99499 71.6642 -0.376392 59.1445 1.16006C66.7306 2.09287 74.1485 4.46425 80.9111 8.27909C94.2232 16.0827 102.792 32.7612 102.792 52.347C102.792 72.0857 94.3763 88.7642 80.9111 96.5677C74.0528 100.429 66.6953 102.835 59.1983 103.787C71.6529 105.364 84.3708 102.958 95.7212 96.5677C109.186 88.7642 117.602 72.0857 117.602 52.347C117.602 32.7612 109.033 16.0827 95.7212 8.27909Z" fill="#83D0F8"/>
<path d="M15.0831 52.4999C15.0831 32.7612 23.6518 16.0827 37.27 8.27909C44.0904 4.46425 51.5443 2.09287 59.1444 1.16006C46.6481 -0.376392 33.695 1.99499 22.4598 8.27909C8.84166 16.0827 0.272949 32.7612 0.272949 52.4999C0.272949 72.0857 8.84166 89.0701 22.4598 96.5677C34.001 102.958 46.7906 105.364 59.1982 103.787C51.6728 102.835 44.2434 100.429 37.27 96.5677C23.6518 89.0701 15.0831 72.0857 15.0831 52.4999Z" fill="#4450F5"/>
<path d="M102.792 52.3471C102.792 32.7613 94.223 16.0828 80.911 8.27918C74.1483 4.46435 66.7304 2.09296 59.1444 1.16016C51.5442 2.09296 44.0903 4.46435 37.27 8.27918C23.6518 16.0828 15.083 32.7613 15.083 52.5C15.083 72.0858 23.6518 89.0702 37.27 96.5678C44.2434 100.429 51.6728 102.835 59.1982 103.787C66.6951 102.835 74.0527 100.429 80.911 96.5678C94.3761 88.7643 102.792 72.0858 102.792 52.3471Z" fill="#00A0F5"/>
<path d="M102.792 52.3471C102.792 32.7613 94.223 16.0828 80.911 8.27918C74.1483 4.46435 66.7304 2.09296 59.1444 1.16016C51.5442 2.09296 44.0903 4.46435 37.27 8.27918C23.6518 16.0828 15.083 32.7613 15.083 52.5C15.083 72.0858 23.6518 89.0702 37.27 96.5678C44.2434 100.429 51.6728 102.835 59.1982 103.787C66.6951 102.835 74.0527 100.429 80.911 96.5678C94.3761 88.7643 102.792 72.0858 102.792 52.3471Z" fill="#00A0F5"/>
<path d="M70.6005 39.0629C66.7999 42.3393 66.4068 47.4504 70.6005 44.8293C73.0906 43.1256 76.2359 43.1256 78.726 44.8293C82.9197 47.4504 82.5266 42.3393 78.726 39.0629C76.2359 36.966 73.0906 36.966 70.6005 39.0629ZM38.492 39.0629C34.6914 42.3393 34.4293 47.4504 38.492 44.8293C40.9821 43.1256 44.1274 43.1256 46.6175 44.8293C50.8112 47.4504 50.4181 42.3393 46.6175 39.0629C44.1274 36.966 40.9821 36.966 38.492 39.0629ZM67.7173 56.7553C64.1788 54.2653 52.9081 54.2653 49.2386 56.7553C47.4038 57.9348 48.8454 65.2739 50.0249 67.3708C53.4323 74.3167 63.5236 74.3167 67.1931 67.3708C68.1105 65.405 69.5521 57.9348 67.7173 56.7553Z" fill="white"/>
</svg>
