<?xml version="1.0" encoding="utf-8"?>
<!-- Generator: Adobe Illustrator 25.0.1, SVG Export Plug-In . SVG Version: 6.00 Build 0)  -->
<svg version="1.1" id="Layer_1" xmlns="http://www.w3.org/2000/svg" xmlns:xlink="http://www.w3.org/1999/xlink" x="0px" y="0px"
	 viewBox="0 0 359.5241089 359.5241089" style="enable-background:new 0 0 359.5241089 359.5241089;" xml:space="preserve">
<style type="text/css">
	.st0{fill:#FFFFFF;}
	.st1{fill:#82CEF6;}
	.st2{fill:#4450F3;}
	.st3{fill:#1A9EF3;}
</style>
<rect class="st0" width="359.5241089" height="359.5241089"/>
<g>
	<g>
		<path class="st1" d="M271.5887451,68.3334885c-27.8157196-15.6908646-60.0683594-21.6120148-91.328949-17.7756119
			c18.9416656,2.3291359,37.4636688,8.2502861,54.3493805,17.7756119
			c33.239151,19.4850388,54.6347198,61.1297226,54.6347198,110.0339279c0,49.2859192-21.0134277,90.9306183-54.6347198,110.4154205
			c-17.1245575,9.6415405-35.4957886,15.6480103-54.2150269,18.0261841
			c31.0980835,3.9370728,62.8534241-2.069397,91.1945953-18.0261841
			c33.6213074-19.4848022,54.6347351-61.1295013,54.6347351-110.4154205
			C326.2234802,129.4632111,304.8279114,87.8185272,271.5887451,68.3334885z"/>
		<path class="st2" d="M70.2422867,178.7491302c0-49.2859192,21.3955612-90.930603,55.3990021-110.4156418
			c17.0298691-9.5253258,35.6416397-15.446476,54.6185074-17.7756119
			c-31.2021637-3.8364029-63.5450134,2.0847473-91.5983047,17.7756119
			c-34.003437,19.4850388-55.3987885,61.1297226-55.3987885,110.4156418c0,48.9042053,21.3953514,91.3127594,55.3987885,110.0337067
			c28.8173676,15.9567871,60.7518387,21.9632568,91.7326584,18.0261841
			c-18.7902679-2.3781738-37.3408356-8.3846436-54.752861-18.0261841
			C91.6378479,270.0618896,70.2422867,227.6533356,70.2422867,178.7491302z"/>
		<path class="st3" d="M289.2438965,178.3674164c0-48.9042053-21.3955688-90.5488892-54.6347198-110.0339279
			c-16.8857117-9.5253258-35.4077148-15.446476-54.3493805-17.7756119
			c-18.9768677,2.3291359-37.5886383,8.2502861-54.6185074,17.7756119
			c-34.0034409,19.4850388-55.3990021,61.1297226-55.3990021,110.4156418
			c0,48.9042053,21.3955612,91.3127594,55.3990021,110.0337067c17.4120255,9.6415405,35.9625931,15.6480103,54.752861,18.0261841
			c18.7192383-2.3781738,37.0904694-8.3846436,54.2150269-18.0261841
			C268.2304688,269.2980347,289.2438965,227.6533356,289.2438965,178.3674164z"/>
		<path class="st3" d="M289.2438965,178.3674164c0-48.9042053-21.3955688-90.5488892-54.6347198-110.0339279
			c-16.8857117-9.5253258-35.4077148-15.446476-54.3493805-17.7756119
			c-18.9768677,2.3291359-37.5886383,8.2502861-54.6185074,17.7756119
			c-34.0034409,19.4850388-55.3990021,61.1297226-55.3990021,110.4156418
			c0,48.9042053,21.3955612,91.3127594,55.3990021,110.0337067c17.4120255,9.6415405,35.9625931,15.6480103,54.752861,18.0261841
			c18.7192383-2.3781738,37.0904694-8.3846436,54.2150269-18.0261841
			C268.2304688,269.2980347,289.2438965,227.6533356,289.2438965,178.3674164z"/>
	</g>
</g>
<path class="st0" d="M202.6165009,189.8018799c-4.3156738-2.9877777-13.279007-4.647644-22.9062958-4.647644
	s-18.5906372,1.6598663-22.906311,4.647644c-4.6476593,2.987793-0.9959259,21.9103851,1.3278961,26.8900146
	c4.6476593,8.6313629,12.947052,13.2790222,21.5784149,13.2790222s16.9307404-4.6476593,21.5783997-13.2790222
	C203.6124268,211.712265,207.2641602,192.7896729,202.6165009,189.8018799z M234.4861603,174.5310059
	c-10.2912445,0-18.5906372,5.6435852-18.5906372,12.6150818c0,6.9714813,8.2993927,12.6150665,18.5906372,12.6150665
	c9.959259,0,18.2586517-5.6435852,18.2586517-12.6150665C252.744812,180.1745911,244.4454193,174.5310059,234.4861603,174.5310059z
	 M124.9342422,174.5310059c-9.9592667,0-18.2586517,5.6435852-18.2586517,12.6150818
	c0,6.9714813,8.2993851,12.6150665,18.2586517,12.6150665c10.2912369,0,18.5906296-5.6435852,18.5906296-12.6150665
	C143.5248718,180.1745911,135.2254791,174.5310059,124.9342422,174.5310059z M230.1704712,159.5921173
	c10.2912445,6.6395111,9.2953186-6.3075409,0-14.6069183c-6.3075256-5.311615-14.2749481-5.311615-20.2505035,0
	c-9.6272888,8.2993774-10.6232147,21.2464294,0,14.6069183
	C215.8955231,155.2764282,223.8629456,155.2764282,230.1704712,159.5921173z M149.5004272,144.985199
	c-5.9755554-5.311615-13.9429626-5.311615-20.2505035,0c-9.295311,8.2993774-10.2912369,21.2464294,0,14.6069183
	c6.3075409-4.3156891,14.2749481-4.3156891,20.2505035,0C160.123642,166.2316284,159.1277161,153.2845764,149.5004272,144.985199z"
	/>
</svg>
