<svg width="512" height="512" viewBox="0 0 512 512" fill="none" xmlns="http://www.w3.org/2000/svg">
<rect width="512" height="512" rx="256" fill="white"/>
<path opacity="0.4" d="M130.674 66.643C72.2005 100.151 35.408 171.765 35.408 256.519C35.408 340.616 72.2005 413.544 130.674 445.737C210.172 489.757 303.468 489.757 381.652 445.737C439.469 412.23 475.604 340.616 475.604 255.862C475.604 171.765 438.812 100.151 381.652 66.643C304.782 23.2804 208.201 23.2804 130.674 66.643Z" fill="#13A3F3"/>
<path d="M164.925 118.718C122.495 143.032 95.7979 194.996 95.7979 256.496C95.7979 317.519 122.495 370.437 164.925 393.798C222.611 425.739 290.308 425.739 347.041 393.798C388.994 369.484 415.215 317.519 415.215 256.019C415.215 194.996 388.517 143.032 347.041 118.718C291.262 87.2529 221.181 87.2529 164.925 118.718Z" fill="#13A3F3"/>
<path d="M300.577 204.585C285.889 217.247 284.37 236.998 300.577 226.869C310.199 220.285 322.354 220.285 331.977 226.869C348.183 236.998 346.664 217.247 331.977 204.585C322.354 196.482 310.199 196.482 300.577 204.585ZM176.496 204.585C161.809 217.247 160.796 236.998 176.496 226.869C186.118 220.285 198.273 220.285 207.896 226.869C224.102 236.998 222.583 217.247 207.896 204.585C198.273 196.482 186.118 196.482 176.496 204.585ZM289.435 272.956C275.76 263.334 232.206 263.334 218.025 272.956C210.935 277.514 216.505 305.876 221.064 313.979C234.231 340.821 273.228 340.821 287.409 313.979C290.954 306.382 296.525 277.514 289.435 272.956Z" fill="white"/>
<path d="M338.561 288.149C354.224 288.149 366.922 279.532 366.922 268.903C366.922 258.275 354.224 249.658 338.561 249.658C322.897 249.658 310.199 258.275 310.199 268.903C310.199 279.532 322.897 288.149 338.561 288.149Z" fill="white"/>
<path d="M171.431 288.149C187.095 288.149 199.793 279.532 199.793 268.903C199.793 258.275 187.095 249.658 171.431 249.658C155.768 249.658 143.07 258.275 143.07 268.903C143.07 279.532 155.768 288.149 171.431 288.149Z" fill="white"/>
</svg>
