<svg width="577" height="582" viewBox="0 0 577 582" fill="none" xmlns="http://www.w3.org/2000/svg">
<rect x="33" y="35" width="512" height="512" rx="256" fill="white"/>
<path d="M171.448 113.12C116.619 144.615 82.1194 211.929 82.1194 291.595C82.1194 370.642 116.619 439.191 171.448 469.452C245.99 510.828 333.47 510.828 406.781 469.452C460.994 437.956 494.877 370.642 494.877 290.977C494.877 211.929 460.378 144.615 406.781 113.12C334.702 72.3611 244.142 72.3611 171.448 113.12Z" fill="#13A3F3"/>
<path d="M346.823 224.346C327.82 240.729 325.854 266.286 346.823 253.179C359.274 244.661 375.001 244.661 387.452 253.179C408.422 266.286 406.456 240.729 387.452 224.346C375.001 213.861 359.274 213.861 346.823 224.346ZM186.274 224.346C167.27 240.729 165.959 266.286 186.274 253.179C198.725 244.661 214.452 244.661 226.903 253.179C247.872 266.286 245.907 240.729 226.903 224.346C214.452 213.861 198.725 213.861 186.274 224.346ZM332.407 312.812C314.713 300.361 258.357 300.361 240.009 312.812C230.835 318.71 238.043 355.407 243.941 365.892C260.979 400.623 311.437 400.623 329.785 365.892C334.373 356.062 341.581 318.71 332.407 312.812Z" fill="white"/>
<path d="M395.971 332.469C416.238 332.469 432.668 321.32 432.668 307.568C432.668 293.815 416.238 282.666 395.971 282.666C375.704 282.666 359.274 293.815 359.274 307.568C359.274 321.32 375.704 332.469 395.971 332.469Z" fill="white"/>
<path d="M179.721 332.469C199.988 332.469 216.418 321.32 216.418 307.568C216.418 293.815 199.988 282.666 179.721 282.666C159.454 282.666 143.024 293.815 143.024 307.568C143.024 321.32 159.454 332.469 179.721 332.469Z" fill="white"/>
</svg>
