<svg width="133" height="135" viewBox="0 0 133 135" fill="none" xmlns="http://www.w3.org/2000/svg">
<path d="M28.8161 10.1337C11.1613 20.2504 0.0527344 41.8726 0.0527344 67.4621C0.0527344 92.8532 11.1613 114.872 28.8161 124.592C52.8186 137.883 80.9869 137.883 104.593 124.592C122.049 114.475 132.959 92.8532 132.959 67.2637C132.959 41.8726 121.851 20.2504 104.593 10.1337C81.3837 -2.95862 52.2235 -2.95862 28.8161 10.1337Z" fill="#13A3F3"/>
<path d="M85.2596 45.8628C79.1484 51.131 78.5162 59.3495 85.2596 55.1349C89.2635 52.3954 94.321 52.3954 98.3249 55.1349C105.068 59.3495 104.436 51.131 98.3249 45.8628C94.321 42.4911 89.2635 42.4911 85.2596 45.8628ZM33.6306 45.8628C27.5194 51.131 27.0979 59.3495 33.6306 55.1349C37.6345 52.3954 42.692 52.3954 46.6959 55.1349C53.4393 59.3495 52.8071 51.131 46.6959 45.8628C42.692 42.4911 37.6345 42.4911 33.6306 45.8628ZM80.6235 74.3114C74.9338 70.3075 56.8109 70.3075 50.9105 74.3114C47.9603 76.208 50.2783 88.0089 52.1749 91.3806C57.6539 102.549 73.8801 102.549 79.7806 91.3806C81.2557 88.2196 83.5737 76.208 80.6235 74.3114Z" fill="white"/>
<path d="M101.064 80.6327C107.582 80.6327 112.865 77.0475 112.865 72.625C112.865 68.2024 107.582 64.6172 101.064 64.6172C94.5469 64.6172 89.2634 68.2024 89.2634 72.625C89.2634 77.0475 94.5469 80.6327 101.064 80.6327Z" fill="white"/>
<path d="M31.5232 80.6327C38.0407 80.6327 43.3241 77.0475 43.3241 72.625C43.3241 68.2024 38.0407 64.6172 31.5232 64.6172C25.0057 64.6172 19.7223 68.2024 19.7223 72.625C19.7223 77.0475 25.0057 80.6327 31.5232 80.6327Z" fill="white"/>
</svg>
