<?xml version="1.0" encoding="utf-8"?>
<!-- Generator: Adobe Illustrator 25.0.1, SVG Export Plug-In . SVG Version: 6.00 Build 0)  -->
<svg version="1.1" id="Layer_1" xmlns="http://www.w3.org/2000/svg" xmlns:xlink="http://www.w3.org/1999/xlink" x="0px" y="0px"
	 viewBox="0 0 185.0120697 186.8759918" style="enable-background:new 0 0 185.0120697 186.8759918;" xml:space="preserve">
<style type="text/css">
	.st0{opacity:0.4;fill:#13A3F3;}
	.st1{fill:#13A3F3;}
	.st2{fill:#FFFFFF;}
</style>
<path class="st0" d="M40.5645866,14.4664946C16.2341194,28.4086723,0.9250603,58.2066612,0.9250603,93.472168
	c0,34.9921417,15.3090591,65.3368835,39.6395264,78.7322998c33.0785027,18.3161926,71.8979034,18.3161926,104.4296417,0
	c24.0570984-13.9421692,39.0927734-43.7401581,39.0927734-79.0056763c0-34.9921303-15.3090515-64.7901154-39.0927734-78.7322998
	C113.0092392-3.5763247,72.8229599-3.5763247,40.5645866,14.4664946z"/>
<path class="st1" d="M54.8160934,36.1344109C37.161335,46.2511864,26.052721,67.8733063,26.052721,93.4627914
	c0,25.3911209,11.108614,47.4099808,28.7633724,57.1300125c24.0025406,13.2906647,52.1708145,13.2906647,75.776619,0
	c17.4563904-10.1167755,28.3666382-31.7388916,28.3666382-57.3283768c0-25.3911209-11.1086121-47.0132408-28.3666382-57.1300163
	C107.3836441,23.0421181,78.2235336,23.0421181,54.8160934,36.1344109z"/>
<path class="st2" d="M111.2595596,71.8618698c-6.1111908,5.2682724-6.7433853,13.486763,0,9.2721481
	c4.0038757-2.7394943,9.0614166-2.7394943,13.0652924,0c6.7433853,4.2146149,6.1111832-4.0038757,0-9.2721481
	C120.3209763,68.490181,115.2634354,68.490181,111.2595596,71.8618698z M59.6305542,71.8618698
	c-6.111187,5.2682724-6.53265,13.486763,0,9.2721481c4.0038834-2.7394943,9.0614166-2.7394943,13.0653,0
	c6.7433777,4.2146149,6.1111832-4.0038757,0-9.2721481C68.6919708,68.490181,63.6344376,68.490181,59.6305542,71.8618698z
	 M106.6234818,100.3105087c-5.6897278-4.0038834-23.812561-4.0038834-29.7130203,0
	c-2.9502258,1.8965759-0.6321869,13.6974869,1.264389,17.0691757c5.4789963,11.1687317,21.7052536,11.1687317,27.6057129,0
	C107.2556763,114.2187271,109.5737076,102.2070847,106.6234818,100.3105087z"/>
<ellipse class="st2" cx="127.0643539" cy="98.6246643" rx="11.8009148" ry="8.0077639"/>
<ellipse class="st2" cx="57.5232468" cy="98.6246643" rx="11.8009148" ry="8.0077639"/>
</svg>
