<svg width="223" height="225" viewBox="0 0 223 225" fill="none" xmlns="http://www.w3.org/2000/svg">
<rect width="223" height="225" fill="#16161D"/>
<path opacity="0.4" d="M59.5646 33.4657C35.2341 47.4079 19.925 77.2059 19.925 112.471C19.925 147.464 35.2341 177.808 59.5646 191.204C92.6431 209.52 131.462 209.52 163.994 191.204C188.051 177.262 203.087 147.464 203.087 112.198C203.087 77.2059 187.778 47.4079 163.994 33.4657C132.009 15.4229 91.8229 15.4229 59.5646 33.4657Z" fill="#13A3F3"/>
<path d="M73.8161 55.1337C56.1613 65.2504 45.0527 86.8726 45.0527 112.462C45.0527 137.853 56.1613 159.872 73.8161 169.592C97.8186 182.883 125.987 182.883 149.593 169.592C167.049 159.475 177.959 137.853 177.959 112.264C177.959 86.8726 166.851 65.2504 149.593 55.1337C126.384 42.0414 97.2235 42.0414 73.8161 55.1337Z" fill="#13A3F3"/>
<path d="M130.26 90.8628C124.148 96.131 123.516 104.35 130.26 100.135C134.263 97.3954 139.321 97.3954 143.325 100.135C150.068 104.35 149.436 96.131 143.325 90.8628C139.321 87.4911 134.263 87.4911 130.26 90.8628ZM78.6306 90.8628C72.5194 96.131 72.0979 104.35 78.6306 100.135C82.6345 97.3954 87.692 97.3954 91.6959 100.135C98.4393 104.35 97.8071 96.131 91.6959 90.8628C87.692 87.4911 82.6345 87.4911 78.6306 90.8628ZM125.624 119.311C119.934 115.308 101.811 115.308 95.9105 119.311C92.9603 121.208 95.2783 133.009 97.1749 136.381C102.654 147.549 118.88 147.549 124.781 136.381C126.256 133.22 128.574 121.208 125.624 119.311Z" fill="white"/>
<path d="M146.064 125.633C152.582 125.633 157.865 122.048 157.865 117.625C157.865 113.202 152.582 109.617 146.064 109.617C139.547 109.617 134.263 113.202 134.263 117.625C134.263 122.048 139.547 125.633 146.064 125.633Z" fill="white"/>
<path d="M76.5232 125.633C83.0407 125.633 88.3241 122.048 88.3241 117.625C88.3241 113.202 83.0407 109.617 76.5232 109.617C70.0057 109.617 64.7223 113.202 64.7223 117.625C64.7223 122.048 70.0057 125.633 76.5232 125.633Z" fill="white"/>
</svg>
